<?xml version="1.0" encoding="utf-8"?>
<!-- Svg Vector Icons : http://www.onlinewebfonts.com/icon -->
<!DOCTYPE svg PUBLIC "-//W3C//DTD SVG 1.1//EN" "http://www.w3.org/Graphics/SVG/1.1/DTD/svg11.dtd">
<svg version="1.1" xmlns="http://www.w3.org/2000/svg" xmlns:xlink="http://www.w3.org/1999/xlink" x="0px" y="0px" viewBox="0 0 256 256" enable-background="new 0 0 256 256" xml:space="preserve">
<metadata> Svg Vector Icons : http://www.onlinewebfonts.com/icon </metadata>
<g> <path fill="#ac7421" d="M162.8,66.2l-31.6-18.4c3.6,2.1,5.6,6.8,5.7,13.7c0,14.1-8.4,28.6-21.8,36.3l-27.6,15.9l31.6,18.4 l27.6-15.9c13.4-7.7,21.8-22.1,21.8-36.3C168.5,73,166.5,68.3,162.8,66.2L162.8,66.2z"/> <path fill="#3a2910" d="M119.1,133.2c-0.2,0-0.4,0-0.6-0.1L87,114.7c-0.3-0.2-0.6-0.6-0.6-1c0-0.4,0.2-0.8,0.6-1l27.6-15.9 c12.9-7.5,21.3-21.3,21.2-35.3c0-6.4-1.8-10.8-5.1-12.7c-0.5-0.3-0.7-1-0.4-1.5c0.3-0.5,1-0.7,1.5-0.4l31.6,18.4 c4,2.4,6.2,7.4,6.2,14.6c0,14.8-8.7,29.4-22.4,37.2l-27.6,16C119.5,133.1,119.3,133.2,119.1,133.2z M89.8,113.7l29.4,17.1l27-15.6 c12.9-7.5,21.3-21.3,21.2-35.3c0-6.4-1.8-10.8-5.1-12.7l-26-15.1c1.1,2.5,1.7,5.7,1.7,9.4c0,14.8-8.7,29.4-22.4,37.2L89.8,113.7z" /> <path fill="#f5a419" d="M148,37.5c31.2-18,49.9-4.1,50,25.3c0.1,29.5-18.5,64.9-49.7,82.9l-29.1,16.7l0.2,65.3l-29.5,17l-0.3-106.3 C89.5,101.5,115.6,56.2,148,37.5L148,37.5z M146.7,116.2c13.4-7.7,21.8-22.1,21.8-36.3c0-14.1-8.6-19-21.9-11.3 c-15.2,8.8-27.5,30.1-27.5,47.6l0,15.8L146.7,116.2"/> <path fill="#3a2910" d="M89.9,246c-0.2,0-0.4,0-0.6-0.2c-0.3-0.2-0.6-0.6-0.6-1l-0.3-106.3c0-18.2,6.1-38.8,17.2-58 c11.1-19.2,25.9-34.9,41.8-44c9.4-5.5,18-8.2,25.6-8.2c16.3,0,26.1,12.9,26.1,34.5c0,15-4.7,31.4-13.3,46.3 c-9.2,15.9-22,28.9-37,37.6l-28.5,16.4l0.2,64.7c0,0.4-0.2,0.8-0.6,1l-29.5,17C90.3,246,90.1,246,89.9,246L89.9,246z M173,30.6 c-7.1,0-15.4,2.7-24.4,7.9c-32,18.5-57.9,63.4-57.8,100.1L91,242.9l27.2-15.7l-0.2-64.7c0-0.4,0.2-0.8,0.6-1l29-16.8 c14.7-8.5,27.2-21.2,36.2-36.7c8.4-14.6,13-30.6,13-45.2C196.8,42.7,187.9,30.6,173,30.6L173,30.6z M119.1,133.2 c-0.2,0-0.4,0-0.6-0.1c-0.3-0.2-0.6-0.6-0.6-1l0-15.8c0-17.8,12.5-39.6,28-48.6c4.4-2.5,8.3-3.8,11.8-3.8c7.5,0,11.8,5.8,11.8,16 c0,14.8-8.7,29.4-22.4,37.2l-27.5,16C119.5,133.1,119.3,133.2,119.1,133.2z M157.8,66.1c-3.1,0-6.7,1.2-10.7,3.5 c-14.9,8.6-27,29.5-26.9,46.6l0,13.9l25.9-15c12.9-7.5,21.3-21.3,21.2-35.3C167.4,74.7,166.1,66.1,157.8,66.1z"/> <path fill="#865b25" d="M153.2,14.1c-8.6-5-21.1-4-36.8,5C84,37.8,57.9,83.1,58,120.2l0.3,106.3l31.6,18.4l-0.3-106.3 c-0.1-37.2,26-82.4,58.3-101.1c15.7-9,28.2-10.1,36.8-5L153.2,14.1z"/> <path fill="#3a2910" d="M89.9,246C89.9,246,89.9,246,89.9,246c-0.2,0-0.4,0-0.6-0.2l-31.6-18.3c-0.3-0.2-0.6-0.6-0.6-1l-0.3-106.3 c0-18.2,6.1-38.8,17.2-58c11.1-19.2,25.9-34.9,41.8-44c9.4-5.5,18-8.2,25.6-8.2c4.6,0,8.8,1,12.4,3.1l31.6,18.4 c0.5,0.3,0.7,1,0.4,1.5c-0.3,0.5-1,0.7-1.5,0.4c-3.3-1.9-7-2.8-11.3-2.8c-7.1,0-15.4,2.7-24.4,7.9c-32,18.5-57.9,63.4-57.8,100.1 l0.3,106.1v0.2C91.1,245.5,90.5,246,89.9,246L89.9,246z M59.4,225.9l29.4,17.1l-0.3-104.3c0-18.2,6.1-38.8,17.2-58 c11.1-19.2,25.9-34.9,41.8-44c9.4-5.5,18-8.2,25.6-8.2c0.9,0,1.8,0,2.7,0.1L152.6,15c-3.3-1.9-7-2.8-11.3-2.8 c-7.1,0-15.4,2.7-24.4,7.9C84.9,38.6,59,83.5,59.2,120.2L59.4,225.9z"/></g>
</svg>